<svg xmlns="http://www.w3.org/2000/svg" viewBox="0 0 1200 320" width="1200" height="320" font-family="'Trebuchet MS','Segoe UI',Verdana,sans-serif">
<defs>
  <linearGradient id="sky" x1="0" y1="0" x2="0" y2="1">
    <stop offset="0%" stop-color="#0d1117"/>
    <stop offset="32%" stop-color="#1b1030"/>
    <stop offset="56%" stop-color="#3a1457"/>
    <stop offset="76%" stop-color="#7a1f63"/>
    <stop offset="92%" stop-color="#b83271"/>
    <stop offset="100%" stop-color="#ff7a44"/>
  </linearGradient>
  <linearGradient id="sun" x1="0" y1="0" x2="0" y2="1">
    <stop offset="0%" stop-color="#ffe27a"/><stop offset="55%" stop-color="#ff9d54"/>
    <stop offset="100%" stop-color="#ff5f86"/>
  </linearGradient>
  <radialGradient id="sunGlow" cx="50%" cy="50%" r="50%">
    <stop offset="0%" stop-color="#ff9d54" stop-opacity="0.55"/>
    <stop offset="100%" stop-color="#ff9d54" stop-opacity="0"/>
  </radialGradient>
  <linearGradient id="fadeL" x1="0" y1="0" x2="1" y2="0">
    <stop offset="0%" stop-color="#0d1117"/><stop offset="100%" stop-color="#0d1117" stop-opacity="0"/></linearGradient>
  <linearGradient id="fadeR" x1="0" y1="0" x2="1" y2="0">
    <stop offset="0%" stop-color="#0d1117" stop-opacity="0"/><stop offset="100%" stop-color="#0d1117"/></linearGradient>
  <linearGradient id="fadeT" x1="0" y1="0" x2="0" y2="1">
    <stop offset="0%" stop-color="#0d1117"/><stop offset="100%" stop-color="#0d1117" stop-opacity="0"/></linearGradient>
  <linearGradient id="fadeB" x1="0" y1="0" x2="0" y2="1">
    <stop offset="0%" stop-color="#0d1117" stop-opacity="0"/><stop offset="100%" stop-color="#0d1117"/></linearGradient>
  <mask id="sunStripes">
    <rect x="0" y="0" width="1200" height="320" fill="white"/>
    <g fill="black">
      <rect x="190" y="206" width="220" height="4"/><rect x="190" y="214" width="220" height="5"/>
      <rect x="190" y="224" width="220" height="6"/><rect x="190" y="236" width="220" height="8"/>
    </g>
  </mask>
  <style>
    .star{animation:tw 3s ease-in-out infinite}
    @keyframes tw{0%,100%{opacity:.2}50%{opacity:1}}
    #sun{animation:pulse 5s ease-in-out infinite;transform-origin:300px 230px}
    @keyframes pulse{0%,100%{opacity:.92}50%{opacity:1;transform:scale(1.02)}}
    .flk{animation:flk 4s steps(1,end) infinite}
    @keyframes flk{0%,100%{opacity:1}45%{opacity:.12}50%{opacity:1}72%{opacity:.45}}
    .blink{animation:bl 1.8s ease-in-out infinite}
    @keyframes bl{0%,100%{opacity:1}50%{opacity:.15}}
  </style>
</defs>
<rect x="0" y="0" width="1200" height="320" fill="#0d1117"/>
<rect x="0" y="0" width="1200" height="320" fill="url(#sky)"/>
<g><circle class="star" cx="683" cy="48" r="1.1" style="animation-delay:0.1s"/><circle class="star" cx="1117" cy="34" r="1.1" style="animation-delay:0.2s"/><circle class="star" cx="1059" cy="64" r="0.7" style="animation-delay:1.3s"/><circle class="star" cx="163" cy="71" r="0.8" style="animation-delay:1.3s"/><circle class="star" cx="1178" cy="41" r="1.6" style="animation-delay:1.9s"/><circle class="star" cx="146" cy="111" r="0.7" style="animation-delay:0.7s"/><circle class="star" cx="1160" cy="44" r="1.0" style="animation-delay:0.4s"/><circle class="star" cx="261" cy="88" r="1.3" style="animation-delay:2.0s"/><circle class="star" cx="231" cy="58" r="1.1" style="animation-delay:1.6s"/><circle class="star" cx="148" cy="25" r="1.3" style="animation-delay:1.5s"/><circle class="star" cx="1108" cy="119" r="1.5" style="animation-delay:1.4s"/><circle class="star" cx="948" cy="102" r="1.0" style="animation-delay:2.4s"/><circle class="star" cx="519" cy="30" r="1.3" style="animation-delay:1.6s"/><circle class="star" cx="723" cy="124" r="1.0" style="animation-delay:2.9s"/><circle class="star" cx="261" cy="141" r="1.1" style="animation-delay:2.3s"/><circle class="star" cx="331" cy="135" r="1.1" style="animation-delay:2.9s"/><circle class="star" cx="178" cy="90" r="1.0" style="animation-delay:1.1s"/><circle class="star" cx="1037" cy="126" r="0.8" style="animation-delay:0.3s"/><circle class="star" cx="572" cy="131" r="1.4" style="animation-delay:0.2s"/><circle class="star" cx="654" cy="124" r="1.0" style="animation-delay:1.2s"/><circle class="star" cx="730" cy="15" r="1.6" style="animation-delay:1.1s"/><circle class="star" cx="259" cy="136" r="0.8" style="animation-delay:2.3s"/><circle class="star" cx="284" cy="73" r="1.1" style="animation-delay:2.8s"/><circle class="star" cx="1036" cy="30" r="0.9" style="animation-delay:1.2s"/><circle class="star" cx="589" cy="45" r="1.5" style="animation-delay:2.6s"/><circle class="star" cx="590" cy="116" r="1.7" style="animation-delay:2.0s"/></g>
<g id="sun"><circle cx="300" cy="230" r="150" fill="url(#sunGlow)"/><circle cx="300" cy="230" r="86" fill="url(#sun)" mask="url(#sunStripes)"/></g>
<g><rect x="-20" y="281" width="70" height="41" fill="#241a3d"/><rect x="50" y="279" width="55" height="43" fill="#241a3d"/><rect x="105" y="272" width="57" height="50" fill="#241a3d"/><rect x="162" y="249" width="60" height="73" fill="#241a3d"/><rect x="222" y="264" width="60" height="58" fill="#241a3d"/><rect x="282" y="232" width="77" height="90" fill="#241a3d"/><rect x="359" y="246" width="83" height="76" fill="#241a3d"/><rect x="442" y="233" width="62" height="89" fill="#241a3d"/><rect x="504" y="232" width="46" height="90" fill="#241a3d"/><rect x="550" y="214" width="72" height="108" fill="#241a3d"/><rect x="622" y="205" width="69" height="117" fill="#241a3d"/><rect x="691" y="207" width="82" height="115" fill="#241a3d"/><rect x="773" y="187" width="54" height="135" fill="#241a3d"/><rect x="827" y="185" width="78" height="137" fill="#241a3d"/><rect x="905" y="175" width="87" height="147" fill="#241a3d"/><rect x="992" y="173" width="49" height="149" fill="#241a3d"/><rect x="1041" y="157" width="89" height="165" fill="#241a3d"/><rect x="1130" y="161" width="81" height="161" fill="#241a3d"/><rect x="1211" y="153" width="71" height="169" fill="#241a3d"/></g>
<g><rect x="-20" y="265" width="55" height="57" fill="#0c0f17"/><rect class="flk" x="-4" y="271" width="3.4" height="4.2" fill="#ffd479" style="animation-delay:0.11s"/><rect class="flk" x="6" y="271" width="3.4" height="4.2" fill="#ffd479" style="animation-delay:0.22s"/><rect class="flk" x="-14" y="281" width="3.4" height="4.2" fill="#ff7bd5" style="animation-delay:0.33s"/><rect x="-4" y="281" width="3.4" height="4.2" fill="#ffc04d" opacity="0.9"/><rect x="6" y="281" width="3.4" height="4.2" fill="#ffd479" opacity="0.9"/><rect x="16" y="281" width="3.4" height="4.2" fill="#ffc04d" opacity="0.9"/><rect x="6" y="291" width="3.4" height="4.2" fill="#79e6ff" opacity="0.9"/><rect x="-4" y="301" width="3.4" height="4.2" fill="#ffd479" opacity="0.9"/><rect x="37" y="254" width="74" height="68" fill="#0c0f17"/><rect x="53" y="260" width="3.4" height="4.2" fill="#ff7bd5" opacity="0.9"/><rect x="93" y="260" width="3.4" height="4.2" fill="#ffd479" opacity="0.9"/><rect x="43" y="270" width="3.4" height="4.2" fill="#ffc04d" opacity="0.9"/><rect x="53" y="270" width="3.4" height="4.2" fill="#ffd479" opacity="0.9"/><rect x="73" y="270" width="3.4" height="4.2" fill="#ffd479" opacity="0.9"/><rect x="43" y="280" width="3.4" height="4.2" fill="#ffd479" opacity="0.9"/><rect x="63" y="280" width="3.4" height="4.2" fill="#ff7bd5" opacity="0.9"/><rect x="53" y="290" width="3.4" height="4.2" fill="#ff7bd5" opacity="0.9"/><rect class="flk" x="43" y="300" width="3.4" height="4.2" fill="#ffd479" style="animation-delay:2.09s"/><rect x="63" y="300" width="3.4" height="4.2" fill="#79e6ff" opacity="0.9"/><rect x="113" y="232" width="71" height="90" fill="#0c0f17"/><rect x="129" y="238" width="3.4" height="4.2" fill="#ffd479" opacity="0.9"/><rect class="flk" x="119" y="248" width="3.4" height="4.2" fill="#ffc04d" style="animation-delay:1.87s"/><rect x="119" y="258" width="3.4" height="4.2" fill="#ffd479" opacity="0.9"/><rect x="129" y="258" width="3.4" height="4.2" fill="#ffd479" opacity="0.9"/><rect class="flk" x="149" y="268" width="3.4" height="4.2" fill="#ff7bd5" style="animation-delay:2.86s"/><rect x="159" y="268" width="3.4" height="4.2" fill="#ffd479" opacity="0.9"/><rect x="159" y="278" width="3.4" height="4.2" fill="#ffc04d" opacity="0.9"/><rect x="139" y="288" width="3.4" height="4.2" fill="#ff7bd5" opacity="0.9"/><rect x="149" y="288" width="3.4" height="4.2" fill="#ffc04d" opacity="0.9"/><rect x="159" y="298" width="3.4" height="4.2" fill="#ffd479" opacity="0.9"/><rect x="186" y="217" width="31" height="105" fill="#0c0f17"/><rect x="192" y="253" width="3.4" height="4.2" fill="#ffd479" opacity="0.9"/><rect x="192" y="283" width="3.4" height="4.2" fill="#ff7bd5" opacity="0.9"/><rect x="219" y="238" width="65" height="84" fill="#0c0f17"/><rect class="flk" x="225" y="244" width="3.4" height="4.2" fill="#ffc04d" style="animation-delay:3.08s"/><rect x="235" y="244" width="3.4" height="4.2" fill="#79e6ff" opacity="0.9"/><rect x="235" y="274" width="3.4" height="4.2" fill="#ff7bd5" opacity="0.9"/><rect class="flk" x="245" y="274" width="3.4" height="4.2" fill="#79e6ff" style="animation-delay:4.29s"/><rect x="255" y="274" width="3.4" height="4.2" fill="#79e6ff" opacity="0.9"/><rect x="235" y="284" width="3.4" height="4.2" fill="#ffc04d" opacity="0.9"/><rect class="flk" x="255" y="284" width="3.4" height="4.2" fill="#ffc04d" style="animation-delay:0.33s"/><rect x="235" y="294" width="3.4" height="4.2" fill="#ffd479" opacity="0.9"/><rect x="225" y="304" width="3.4" height="4.2" fill="#79e6ff" opacity="0.9"/><rect x="235" y="304" width="3.4" height="4.2" fill="#79e6ff" opacity="0.9"/><rect class="flk" x="245" y="304" width="3.4" height="4.2" fill="#ffc04d" style="animation-delay:0.88s"/><rect x="286" y="209" width="31" height="113" fill="#0c0f17"/><rect x="292" y="215" width="3.4" height="4.2" fill="#ff7bd5" opacity="0.9"/><rect x="292" y="235" width="3.4" height="4.2" fill="#ffd479" opacity="0.9"/><rect x="292" y="245" width="3.4" height="4.2" fill="#ffc04d" opacity="0.9"/><rect x="292" y="265" width="3.4" height="4.2" fill="#ffd479" opacity="0.9"/><rect x="319" y="220" width="55" height="102" fill="#0c0f17"/><rect class="flk" x="355" y="226" width="3.4" height="4.2" fill="#ffc04d" style="animation-delay:0.55s"/><rect x="345" y="236" width="3.4" height="4.2" fill="#ffd479" opacity="0.9"/><rect class="flk" x="325" y="246" width="3.4" height="4.2" fill="#ffd479" style="animation-delay:0.88s"/><rect x="355" y="246" width="3.4" height="4.2" fill="#ff7bd5" opacity="0.9"/><rect x="345" y="256" width="3.4" height="4.2" fill="#ffd479" opacity="0.9"/><rect x="325" y="266" width="3.4" height="4.2" fill="#ffd479" opacity="0.9"/><rect x="335" y="266" width="3.4" height="4.2" fill="#ffc04d" opacity="0.9"/><rect x="345" y="266" width="3.4" height="4.2" fill="#79e6ff" opacity="0.9"/><rect x="355" y="266" width="3.4" height="4.2" fill="#ffc04d" opacity="0.9"/><rect x="335" y="276" width="3.4" height="4.2" fill="#ffd479" opacity="0.9"/><rect x="355" y="276" width="3.4" height="4.2" fill="#79e6ff" opacity="0.9"/><rect x="355" y="296" width="3.4" height="4.2" fill="#ffd479" opacity="0.9"/><rect x="376" y="209" width="51" height="113" fill="#0c0f17"/><rect x="382" y="225" width="3.4" height="4.2" fill="#ffc04d" opacity="0.9"/><rect x="402" y="225" width="3.4" height="4.2" fill="#ffc04d" opacity="0.9"/><rect x="382" y="235" width="3.4" height="4.2" fill="#79e6ff" opacity="0.9"/><rect x="402" y="235" width="3.4" height="4.2" fill="#ffd479" opacity="0.9"/><rect class="flk" x="382" y="245" width="3.4" height="4.2" fill="#ffd479" style="animation-delay:1.98s"/><rect x="402" y="245" width="3.4" height="4.2" fill="#ffc04d" opacity="0.9"/><rect x="392" y="255" width="3.4" height="4.2" fill="#ffc04d" opacity="0.9"/><rect x="402" y="255" width="3.4" height="4.2" fill="#ffc04d" opacity="0.9"/><rect x="402" y="265" width="3.4" height="4.2" fill="#ff7bd5" opacity="0.9"/><rect class="flk" x="382" y="275" width="3.4" height="4.2" fill="#ffd479" style="animation-delay:2.97s"/><rect x="402" y="275" width="3.4" height="4.2" fill="#ffc04d" opacity="0.9"/><rect x="382" y="285" width="3.4" height="4.2" fill="#ff7bd5" opacity="0.9"/><rect x="402" y="285" width="3.4" height="4.2" fill="#ff7bd5" opacity="0.9"/><rect class="flk" x="382" y="295" width="3.4" height="4.2" fill="#79e6ff" style="animation-delay:3.63s"/><rect x="429" y="183" width="32" height="139" fill="#0c0f17"/><rect x="429" y="183" width="32" height="3" fill="#ff5fbf" opacity="0.85"/><rect x="429" y="181" width="32" height="6" fill="#ff5fbf" opacity="0.18"/><rect x="435" y="199" width="3.4" height="4.2" fill="#ff7bd5" opacity="0.9"/><rect x="445" y="209" width="3.4" height="4.2" fill="#ff7bd5" opacity="0.9"/><rect class="flk" x="445" y="229" width="3.4" height="4.2" fill="#ffd479" style="animation-delay:3.19s"/><rect x="435" y="239" width="3.4" height="4.2" fill="#ffd479" opacity="0.9"/><rect x="435" y="249" width="3.4" height="4.2" fill="#ffd479" opacity="0.9"/><rect x="445" y="259" width="3.4" height="4.2" fill="#ffd479" opacity="0.9"/><rect x="445" y="279" width="3.4" height="4.2" fill="#79e6ff" opacity="0.9"/><rect x="435" y="289" width="3.4" height="4.2" fill="#ffc04d" opacity="0.9"/><rect x="435" y="299" width="3.4" height="4.2" fill="#79e6ff" opacity="0.9"/><rect x="445" y="299" width="3.4" height="4.2" fill="#79e6ff" opacity="0.9"/><rect x="463" y="209" width="48" height="113" fill="#0c0f17"/><rect x="489" y="215" width="3.4" height="4.2" fill="#ffd479" opacity="0.9"/><rect class="flk" x="469" y="235" width="3.4" height="4.2" fill="#79e6ff" style="animation-delay:3.19s"/><rect x="479" y="235" width="3.4" height="4.2" fill="#ffd479" opacity="0.9"/><rect x="469" y="245" width="3.4" height="4.2" fill="#ff7bd5" opacity="0.9"/><rect x="489" y="255" width="3.4" height="4.2" fill="#ffd479" opacity="0.9"/><rect class="flk" x="469" y="265" width="3.4" height="4.2" fill="#79e6ff" style="animation-delay:4.18s"/><rect class="flk" x="479" y="275" width="3.4" height="4.2" fill="#ffd479" style="animation-delay:0.22s"/><rect x="489" y="275" width="3.4" height="4.2" fill="#ff7bd5" opacity="0.9"/><rect x="469" y="285" width="3.4" height="4.2" fill="#ff7bd5" opacity="0.9"/><rect x="479" y="295" width="3.4" height="4.2" fill="#79e6ff" opacity="0.9"/><rect x="489" y="295" width="3.4" height="4.2" fill="#79e6ff" opacity="0.9"/><rect x="513" y="185" width="55" height="137" fill="#0c0f17"/><rect x="513" y="185" width="55" height="3" fill="#36e0ff" opacity="0.85"/><rect x="513" y="183" width="55" height="6" fill="#36e0ff" opacity="0.18"/><rect x="519" y="191" width="3.4" height="4.2" fill="#79e6ff" opacity="0.9"/><rect x="539" y="191" width="3.4" height="4.2" fill="#ffc04d" opacity="0.9"/><rect x="549" y="191" width="3.4" height="4.2" fill="#ffd479" opacity="0.9"/><rect class="flk" x="529" y="201" width="3.4" height="4.2" fill="#ffc04d" style="animation-delay:3.74s"/><rect class="flk" x="539" y="201" width="3.4" height="4.2" fill="#ff7bd5" style="animation-delay:3.85s"/><rect x="539" y="211" width="3.4" height="4.2" fill="#ffd479" opacity="0.9"/><rect x="549" y="211" width="3.4" height="4.2" fill="#ffd479" opacity="0.9"/><rect x="519" y="221" width="3.4" height="4.2" fill="#ff7bd5" opacity="0.9"/><rect x="519" y="231" width="3.4" height="4.2" fill="#79e6ff" opacity="0.9"/><rect x="519" y="241" width="3.4" height="4.2" fill="#79e6ff" opacity="0.9"/><rect x="549" y="241" width="3.4" height="4.2" fill="#ffd479" opacity="0.9"/><rect x="529" y="251" width="3.4" height="4.2" fill="#79e6ff" opacity="0.9"/><rect x="539" y="251" width="3.4" height="4.2" fill="#ffc04d" opacity="0.9"/><rect x="549" y="251" width="3.4" height="4.2" fill="#79e6ff" opacity="0.9"/><rect x="519" y="261" width="3.4" height="4.2" fill="#ffd479" opacity="0.9"/><rect x="529" y="261" width="3.4" height="4.2" fill="#ff7bd5" opacity="0.9"/><rect x="549" y="261" width="3.4" height="4.2" fill="#ffc04d" opacity="0.9"/><rect x="529" y="271" width="3.4" height="4.2" fill="#ffd479" opacity="0.9"/><rect class="flk" x="539" y="271" width="3.4" height="4.2" fill="#ff7bd5" style="animation-delay:1.76s"/><rect x="549" y="271" width="3.4" height="4.2" fill="#ffc04d" opacity="0.9"/><rect x="519" y="281" width="3.4" height="4.2" fill="#ffd479" opacity="0.9"/><rect x="529" y="281" width="3.4" height="4.2" fill="#79e6ff" opacity="0.9"/><rect x="539" y="281" width="3.4" height="4.2" fill="#ffc04d" opacity="0.9"/><rect x="549" y="281" width="3.4" height="4.2" fill="#ffc04d" opacity="0.9"/><rect x="519" y="291" width="3.4" height="4.2" fill="#ff7bd5" opacity="0.9"/><rect x="549" y="291" width="3.4" height="4.2" fill="#ffd479" opacity="0.9"/><rect class="flk" x="539" y="301" width="3.4" height="4.2" fill="#ffd479" style="animation-delay:2.75s"/><rect x="570" y="167" width="78" height="155" fill="#0c0f17"/><rect x="570" y="167" width="78" height="3" fill="#ff5fbf" opacity="0.85"/><rect x="570" y="165" width="78" height="6" fill="#ff5fbf" opacity="0.18"/><rect x="576" y="173" width="3.4" height="4.2" fill="#79e6ff" opacity="0.9"/><rect x="576" y="183" width="3.4" height="4.2" fill="#ffd479" opacity="0.9"/><rect x="596" y="193" width="3.4" height="4.2" fill="#ffd479" opacity="0.9"/><rect x="626" y="193" width="3.4" height="4.2" fill="#ffd479" opacity="0.9"/><rect x="606" y="203" width="3.4" height="4.2" fill="#ffc04d" opacity="0.9"/><rect x="626" y="203" width="3.4" height="4.2" fill="#ffd479" opacity="0.9"/><rect x="576" y="213" width="3.4" height="4.2" fill="#ff7bd5" opacity="0.9"/><rect class="flk" x="576" y="223" width="3.4" height="4.2" fill="#ffd479" style="animation-delay:1.32s"/><rect class="flk" x="586" y="223" width="3.4" height="4.2" fill="#ffc04d" style="animation-delay:1.43s"/><rect class="flk" x="596" y="223" width="3.4" height="4.2" fill="#79e6ff" style="animation-delay:1.54s"/><rect x="606" y="223" width="3.4" height="4.2" fill="#79e6ff" opacity="0.9"/><rect x="616" y="223" width="3.4" height="4.2" fill="#ffd479" opacity="0.9"/><rect x="576" y="233" width="3.4" height="4.2" fill="#79e6ff" opacity="0.9"/><rect x="616" y="233" width="3.4" height="4.2" fill="#ffd479" opacity="0.9"/><rect x="576" y="243" width="3.4" height="4.2" fill="#ffd479" opacity="0.9"/><rect x="596" y="243" width="3.4" height="4.2" fill="#ff7bd5" opacity="0.9"/><rect x="606" y="243" width="3.4" height="4.2" fill="#ffd479" opacity="0.9"/><rect class="flk" x="626" y="243" width="3.4" height="4.2" fill="#ff7bd5" style="animation-delay:2.53s"/><rect class="flk" x="576" y="253" width="3.4" height="4.2" fill="#ffd479" style="animation-delay:2.31s"/><rect x="596" y="253" width="3.4" height="4.2" fill="#ffd479" opacity="0.9"/><rect x="626" y="253" width="3.4" height="4.2" fill="#ffd479" opacity="0.9"/><rect x="586" y="263" width="3.4" height="4.2" fill="#ffd479" opacity="0.9"/><rect x="616" y="263" width="3.4" height="4.2" fill="#79e6ff" opacity="0.9"/><rect x="586" y="273" width="3.4" height="4.2" fill="#ffd479" opacity="0.9"/><rect x="596" y="273" width="3.4" height="4.2" fill="#ffd479" opacity="0.9"/><rect x="616" y="273" width="3.4" height="4.2" fill="#ffc04d" opacity="0.9"/><rect x="576" y="283" width="3.4" height="4.2" fill="#79e6ff" opacity="0.9"/><rect class="flk" x="606" y="283" width="3.4" height="4.2" fill="#79e6ff" style="animation-delay:3.63s"/><rect class="flk" x="616" y="283" width="3.4" height="4.2" fill="#79e6ff" style="animation-delay:3.74s"/><rect x="626" y="283" width="3.4" height="4.2" fill="#ffd479" opacity="0.9"/><rect x="576" y="293" width="3.4" height="4.2" fill="#ffd479" opacity="0.9"/><rect x="596" y="293" width="3.4" height="4.2" fill="#ffc04d" opacity="0.9"/><rect x="616" y="293" width="3.4" height="4.2" fill="#ffc04d" opacity="0.9"/><rect x="626" y="293" width="3.4" height="4.2" fill="#ff7bd5" opacity="0.9"/><rect class="flk" x="596" y="303" width="3.4" height="4.2" fill="#ffd479" style="animation-delay:4.18s"/><rect x="650" y="160" width="46" height="162" fill="#0c0f17"/><rect x="650" y="160" width="46" height="3" fill="#ff5fbf" opacity="0.85"/><rect x="650" y="158" width="46" height="6" fill="#ff5fbf" opacity="0.18"/><rect x="656" y="166" width="3.4" height="4.2" fill="#79e6ff" opacity="0.9"/><rect x="656" y="186" width="3.4" height="4.2" fill="#ffc04d" opacity="0.9"/><rect x="666" y="196" width="3.4" height="4.2" fill="#ffd479" opacity="0.9"/><rect x="676" y="196" width="3.4" height="4.2" fill="#ffd479" opacity="0.9"/><rect x="666" y="206" width="3.4" height="4.2" fill="#79e6ff" opacity="0.9"/><rect x="656" y="216" width="3.4" height="4.2" fill="#ffd479" opacity="0.9"/><rect x="666" y="226" width="3.4" height="4.2" fill="#ffd479" opacity="0.9"/><rect x="666" y="246" width="3.4" height="4.2" fill="#ffc04d" opacity="0.9"/><rect x="656" y="256" width="3.4" height="4.2" fill="#ffc04d" opacity="0.9"/><rect x="666" y="256" width="3.4" height="4.2" fill="#ffd479" opacity="0.9"/><rect x="676" y="256" width="3.4" height="4.2" fill="#ff7bd5" opacity="0.9"/><rect x="656" y="266" width="3.4" height="4.2" fill="#ffc04d" opacity="0.9"/><rect x="676" y="266" width="3.4" height="4.2" fill="#ffd479" opacity="0.9"/><rect x="666" y="276" width="3.4" height="4.2" fill="#79e6ff" opacity="0.9"/><rect x="676" y="276" width="3.4" height="4.2" fill="#79e6ff" opacity="0.9"/><rect x="656" y="286" width="3.4" height="4.2" fill="#ffc04d" opacity="0.9"/><rect x="666" y="286" width="3.4" height="4.2" fill="#ff7bd5" opacity="0.9"/><rect x="666" y="296" width="3.4" height="4.2" fill="#ffd479" opacity="0.9"/><rect class="flk" x="676" y="296" width="3.4" height="4.2" fill="#ffd479" style="animation-delay:0.55s"/><rect x="698" y="142" width="68" height="180" fill="#0c0f17"/><rect x="698" y="142" width="68" height="3" fill="#ff5fbf" opacity="0.85"/><rect x="698" y="140" width="68" height="6" fill="#ff5fbf" opacity="0.18"/><rect x="704" y="148" width="3.4" height="4.2" fill="#ffc04d" opacity="0.9"/><rect class="flk" x="714" y="148" width="3.4" height="4.2" fill="#ffc04d" style="animation-delay:1.32s"/><rect x="714" y="158" width="3.4" height="4.2" fill="#ffc04d" opacity="0.9"/><rect class="flk" x="724" y="158" width="3.4" height="4.2" fill="#ffd479" style="animation-delay:1.76s"/><rect x="704" y="168" width="3.4" height="4.2" fill="#79e6ff" opacity="0.9"/><rect class="flk" x="714" y="168" width="3.4" height="4.2" fill="#ff7bd5" style="animation-delay:1.98s"/><rect x="724" y="168" width="3.4" height="4.2" fill="#ffc04d" opacity="0.9"/><rect x="734" y="168" width="3.4" height="4.2" fill="#ffc04d" opacity="0.9"/><rect x="744" y="168" width="3.4" height="4.2" fill="#ff7bd5" opacity="0.9"/><rect x="704" y="178" width="3.4" height="4.2" fill="#ffd479" opacity="0.9"/><rect x="724" y="178" width="3.4" height="4.2" fill="#ffd479" opacity="0.9"/><rect x="734" y="178" width="3.4" height="4.2" fill="#ffd479" opacity="0.9"/><rect x="744" y="178" width="3.4" height="4.2" fill="#ffd479" opacity="0.9"/><rect x="704" y="188" width="3.4" height="4.2" fill="#ffc04d" opacity="0.9"/><rect class="flk" x="714" y="188" width="3.4" height="4.2" fill="#ffd479" style="animation-delay:2.64s"/><rect class="flk" x="724" y="188" width="3.4" height="4.2" fill="#79e6ff" style="animation-delay:2.75s"/><rect x="744" y="188" width="3.4" height="4.2" fill="#ff7bd5" opacity="0.9"/><rect x="704" y="198" width="3.4" height="4.2" fill="#ffd479" opacity="0.9"/><rect x="724" y="198" width="3.4" height="4.2" fill="#79e6ff" opacity="0.9"/><rect x="704" y="208" width="3.4" height="4.2" fill="#ffd479" opacity="0.9"/><rect class="flk" x="724" y="208" width="3.4" height="4.2" fill="#79e6ff" style="animation-delay:3.41s"/><rect x="704" y="228" width="3.4" height="4.2" fill="#79e6ff" opacity="0.9"/><rect x="714" y="228" width="3.4" height="4.2" fill="#79e6ff" opacity="0.9"/><rect class="flk" x="724" y="228" width="3.4" height="4.2" fill="#ffc04d" style="animation-delay:4.07s"/><rect class="flk" x="734" y="228" width="3.4" height="4.2" fill="#ffd479" style="animation-delay:4.18s"/><rect class="flk" x="714" y="238" width="3.4" height="4.2" fill="#ffc04d" style="animation-delay:4.29s"/><rect x="704" y="248" width="3.4" height="4.2" fill="#79e6ff" opacity="0.9"/><rect x="714" y="248" width="3.4" height="4.2" fill="#79e6ff" opacity="0.9"/><rect x="744" y="248" width="3.4" height="4.2" fill="#ff7bd5" opacity="0.9"/><rect class="flk" x="714" y="268" width="3.4" height="4.2" fill="#ffd479" style="animation-delay:0.88s"/><rect x="734" y="268" width="3.4" height="4.2" fill="#79e6ff" opacity="0.9"/><rect class="flk" x="704" y="278" width="3.4" height="4.2" fill="#ffd479" style="animation-delay:1.10s"/><rect x="744" y="278" width="3.4" height="4.2" fill="#ff7bd5" opacity="0.9"/><rect x="724" y="288" width="3.4" height="4.2" fill="#ffd479" opacity="0.9"/><rect x="704" y="298" width="3.4" height="4.2" fill="#79e6ff" opacity="0.9"/><rect x="768" y="168" width="44" height="154" fill="#0c0f17"/><rect x="768" y="168" width="44" height="3" fill="#ff5fbf" opacity="0.85"/><rect x="768" y="166" width="44" height="6" fill="#ff5fbf" opacity="0.18"/><rect x="784" y="174" width="3.4" height="4.2" fill="#ffc04d" opacity="0.9"/><rect class="flk" x="794" y="174" width="3.4" height="4.2" fill="#79e6ff" style="animation-delay:2.20s"/><rect x="794" y="184" width="3.4" height="4.2" fill="#ffc04d" opacity="0.9"/><rect class="flk" x="774" y="194" width="3.4" height="4.2" fill="#ffc04d" style="animation-delay:2.64s"/><rect x="784" y="194" width="3.4" height="4.2" fill="#ffd479" opacity="0.9"/><rect x="794" y="194" width="3.4" height="4.2" fill="#ffc04d" opacity="0.9"/><rect class="flk" x="774" y="204" width="3.4" height="4.2" fill="#ffc04d" style="animation-delay:2.97s"/><rect x="774" y="214" width="3.4" height="4.2" fill="#79e6ff" opacity="0.9"/><rect x="774" y="224" width="3.4" height="4.2" fill="#ff7bd5" opacity="0.9"/><rect x="784" y="224" width="3.4" height="4.2" fill="#ffc04d" opacity="0.9"/><rect x="784" y="234" width="3.4" height="4.2" fill="#ffd479" opacity="0.9"/><rect x="794" y="234" width="3.4" height="4.2" fill="#ffd479" opacity="0.9"/><rect x="784" y="244" width="3.4" height="4.2" fill="#ff7bd5" opacity="0.9"/><rect x="794" y="254" width="3.4" height="4.2" fill="#ffc04d" opacity="0.9"/><rect x="774" y="274" width="3.4" height="4.2" fill="#ffd479" opacity="0.9"/><rect class="flk" x="784" y="274" width="3.4" height="4.2" fill="#ffd479" style="animation-delay:0.99s"/><rect x="794" y="274" width="3.4" height="4.2" fill="#ffd479" opacity="0.9"/><rect x="784" y="284" width="3.4" height="4.2" fill="#ffc04d" opacity="0.9"/><rect x="794" y="284" width="3.4" height="4.2" fill="#ff7bd5" opacity="0.9"/><rect x="774" y="294" width="3.4" height="4.2" fill="#ffd479" opacity="0.9"/><rect x="784" y="294" width="3.4" height="4.2" fill="#ffd479" opacity="0.9"/><rect x="794" y="294" width="3.4" height="4.2" fill="#ffd479" opacity="0.9"/><rect x="784" y="304" width="3.4" height="4.2" fill="#ffc04d" opacity="0.9"/><rect x="794" y="304" width="3.4" height="4.2" fill="#ff7bd5" opacity="0.9"/><rect x="814" y="130" width="68" height="192" fill="#0c0f17"/><rect x="814" y="130" width="68" height="3" fill="#ff5fbf" opacity="0.85"/><rect x="814" y="128" width="68" height="6" fill="#ff5fbf" opacity="0.18"/><rect class="flk" x="850" y="136" width="3.4" height="4.2" fill="#ffd479" style="animation-delay:3.08s"/><rect class="flk" x="820" y="146" width="3.4" height="4.2" fill="#ffd479" style="animation-delay:3.08s"/><rect x="840" y="146" width="3.4" height="4.2" fill="#ff7bd5" opacity="0.9"/><rect x="860" y="146" width="3.4" height="4.2" fill="#ffd479" opacity="0.9"/><rect x="840" y="156" width="3.4" height="4.2" fill="#ff7bd5" opacity="0.9"/><rect x="850" y="156" width="3.4" height="4.2" fill="#ffc04d" opacity="0.9"/><rect x="850" y="166" width="3.4" height="4.2" fill="#79e6ff" opacity="0.9"/><rect x="840" y="176" width="3.4" height="4.2" fill="#ffd479" opacity="0.9"/><rect x="860" y="176" width="3.4" height="4.2" fill="#ffc04d" opacity="0.9"/><rect x="820" y="186" width="3.4" height="4.2" fill="#ff7bd5" opacity="0.9"/><rect class="flk" x="860" y="186" width="3.4" height="4.2" fill="#ffd479" style="animation-delay:0.44s"/><rect x="830" y="196" width="3.4" height="4.2" fill="#ffd479" opacity="0.9"/><rect x="840" y="196" width="3.4" height="4.2" fill="#ffd479" opacity="0.9"/><rect x="850" y="196" width="3.4" height="4.2" fill="#79e6ff" opacity="0.9"/><rect x="860" y="196" width="3.4" height="4.2" fill="#ff7bd5" opacity="0.9"/><rect x="830" y="216" width="3.4" height="4.2" fill="#ffd479" opacity="0.9"/><rect class="flk" x="860" y="216" width="3.4" height="4.2" fill="#ffd479" style="animation-delay:1.43s"/><rect x="820" y="226" width="3.4" height="4.2" fill="#ffd479" opacity="0.9"/><rect class="flk" x="830" y="226" width="3.4" height="4.2" fill="#ffd479" style="animation-delay:1.43s"/><rect x="840" y="226" width="3.4" height="4.2" fill="#ffd479" opacity="0.9"/><rect x="860" y="226" width="3.4" height="4.2" fill="#ff7bd5" opacity="0.9"/><rect x="820" y="236" width="3.4" height="4.2" fill="#ff7bd5" opacity="0.9"/><rect class="flk" x="830" y="236" width="3.4" height="4.2" fill="#79e6ff" style="animation-delay:1.76s"/><rect class="flk" x="840" y="236" width="3.4" height="4.2" fill="#ffd479" style="animation-delay:1.87s"/><rect x="830" y="246" width="3.4" height="4.2" fill="#ffc04d" opacity="0.9"/><rect x="840" y="246" width="3.4" height="4.2" fill="#ffd479" opacity="0.9"/><rect class="flk" x="850" y="246" width="3.4" height="4.2" fill="#ffc04d" style="animation-delay:2.31s"/><rect class="flk" x="860" y="246" width="3.4" height="4.2" fill="#ffc04d" style="animation-delay:2.42s"/><rect x="820" y="266" width="3.4" height="4.2" fill="#ffd479" opacity="0.9"/><rect x="830" y="266" width="3.4" height="4.2" fill="#ff7bd5" opacity="0.9"/><rect x="840" y="266" width="3.4" height="4.2" fill="#ffd479" opacity="0.9"/><rect x="850" y="266" width="3.4" height="4.2" fill="#ffd479" opacity="0.9"/><rect class="flk" x="860" y="266" width="3.4" height="4.2" fill="#79e6ff" style="animation-delay:3.08s"/><rect class="flk" x="820" y="276" width="3.4" height="4.2" fill="#ffd479" style="animation-delay:2.97s"/><rect x="860" y="276" width="3.4" height="4.2" fill="#79e6ff" opacity="0.9"/><rect x="850" y="286" width="3.4" height="4.2" fill="#ffd479" opacity="0.9"/><rect class="flk" x="860" y="286" width="3.4" height="4.2" fill="#ffd479" style="animation-delay:3.74s"/><rect x="830" y="296" width="3.4" height="4.2" fill="#ff7bd5" opacity="0.9"/><rect x="850" y="296" width="3.4" height="4.2" fill="#79e6ff" opacity="0.9"/><rect x="884" y="153" width="77" height="169" fill="#0c0f17"/><rect x="884" y="153" width="77" height="3" fill="#ff5fbf" opacity="0.85"/><rect x="884" y="151" width="77" height="6" fill="#ff5fbf" opacity="0.18"/><rect x="900" y="159" width="3.4" height="4.2" fill="#ffd479" opacity="0.9"/><rect x="930" y="159" width="3.4" height="4.2" fill="#ffd479" opacity="0.9"/><rect x="940" y="159" width="3.4" height="4.2" fill="#ff7bd5" opacity="0.9"/><rect x="910" y="169" width="3.4" height="4.2" fill="#ffc04d" opacity="0.9"/><rect x="890" y="179" width="3.4" height="4.2" fill="#79e6ff" opacity="0.9"/><rect x="920" y="179" width="3.4" height="4.2" fill="#79e6ff" opacity="0.9"/><rect class="flk" x="890" y="189" width="3.4" height="4.2" fill="#ff7bd5" style="animation-delay:0.11s"/><rect x="900" y="189" width="3.4" height="4.2" fill="#ffd479" opacity="0.9"/><rect x="920" y="189" width="3.4" height="4.2" fill="#ffd479" opacity="0.9"/><rect x="930" y="189" width="3.4" height="4.2" fill="#ffd479" opacity="0.9"/><rect x="890" y="199" width="3.4" height="4.2" fill="#ffd479" opacity="0.9"/><rect x="930" y="199" width="3.4" height="4.2" fill="#ffd479" opacity="0.9"/><rect x="900" y="209" width="3.4" height="4.2" fill="#79e6ff" opacity="0.9"/><rect x="940" y="209" width="3.4" height="4.2" fill="#ff7bd5" opacity="0.9"/><rect x="890" y="219" width="3.4" height="4.2" fill="#ffd479" opacity="0.9"/><rect x="940" y="219" width="3.4" height="4.2" fill="#ff7bd5" opacity="0.9"/><rect x="920" y="229" width="3.4" height="4.2" fill="#ffd479" opacity="0.9"/><rect x="930" y="229" width="3.4" height="4.2" fill="#79e6ff" opacity="0.9"/><rect x="890" y="239" width="3.4" height="4.2" fill="#79e6ff" opacity="0.9"/><rect x="900" y="239" width="3.4" height="4.2" fill="#79e6ff" opacity="0.9"/><rect x="940" y="239" width="3.4" height="4.2" fill="#ffd479" opacity="0.9"/><rect x="910" y="249" width="3.4" height="4.2" fill="#ff7bd5" opacity="0.9"/><rect class="flk" x="940" y="249" width="3.4" height="4.2" fill="#ffc04d" style="animation-delay:2.64s"/><rect x="900" y="269" width="3.4" height="4.2" fill="#79e6ff" opacity="0.9"/><rect x="920" y="269" width="3.4" height="4.2" fill="#ffd479" opacity="0.9"/><rect x="890" y="279" width="3.4" height="4.2" fill="#79e6ff" opacity="0.9"/><rect x="900" y="279" width="3.4" height="4.2" fill="#79e6ff" opacity="0.9"/><rect x="940" y="279" width="3.4" height="4.2" fill="#ffc04d" opacity="0.9"/><rect x="910" y="289" width="3.4" height="4.2" fill="#79e6ff" opacity="0.9"/><rect x="920" y="289" width="3.4" height="4.2" fill="#ffd479" opacity="0.9"/><rect x="900" y="299" width="3.4" height="4.2" fill="#ffd479" opacity="0.9"/><rect x="963" y="113" width="48" height="209" fill="#0c0f17"/><rect x="963" y="113" width="48" height="3" fill="#36e0ff" opacity="0.85"/><rect x="963" y="111" width="48" height="6" fill="#36e0ff" opacity="0.18"/><rect x="989" y="119" width="3.4" height="4.2" fill="#79e6ff" opacity="0.9"/><rect x="989" y="139" width="3.4" height="4.2" fill="#ffc04d" opacity="0.9"/><rect class="flk" x="989" y="149" width="3.4" height="4.2" fill="#ffc04d" style="animation-delay:1.10s"/><rect class="flk" x="969" y="159" width="3.4" height="4.2" fill="#79e6ff" style="animation-delay:1.21s"/><rect x="979" y="169" width="3.4" height="4.2" fill="#ffc04d" opacity="0.9"/><rect x="989" y="169" width="3.4" height="4.2" fill="#ffd479" opacity="0.9"/><rect x="969" y="179" width="3.4" height="4.2" fill="#ffc04d" opacity="0.9"/><rect x="979" y="179" width="3.4" height="4.2" fill="#ffd479" opacity="0.9"/><rect x="989" y="179" width="3.4" height="4.2" fill="#79e6ff" opacity="0.9"/><rect x="969" y="189" width="3.4" height="4.2" fill="#79e6ff" opacity="0.9"/><rect x="979" y="189" width="3.4" height="4.2" fill="#ff7bd5" opacity="0.9"/><rect x="989" y="189" width="3.4" height="4.2" fill="#ff7bd5" opacity="0.9"/><rect x="979" y="199" width="3.4" height="4.2" fill="#ffd479" opacity="0.9"/><rect x="969" y="219" width="3.4" height="4.2" fill="#ffd479" opacity="0.9"/><rect x="969" y="239" width="3.4" height="4.2" fill="#ffd479" opacity="0.9"/><rect x="989" y="239" width="3.4" height="4.2" fill="#ffc04d" opacity="0.9"/><rect x="969" y="259" width="3.4" height="4.2" fill="#79e6ff" opacity="0.9"/><rect x="989" y="259" width="3.4" height="4.2" fill="#ffc04d" opacity="0.9"/><rect class="flk" x="969" y="269" width="3.4" height="4.2" fill="#ff7bd5" style="animation-delay:0.44s"/><rect x="979" y="279" width="3.4" height="4.2" fill="#79e6ff" opacity="0.9"/><rect x="969" y="289" width="3.4" height="4.2" fill="#79e6ff" opacity="0.9"/><rect x="979" y="289" width="3.4" height="4.2" fill="#ffc04d" opacity="0.9"/><rect x="989" y="299" width="3.4" height="4.2" fill="#ffc04d" opacity="0.9"/><rect x="1013" y="139" width="65" height="183" fill="#0c0f17"/><rect x="1013" y="139" width="65" height="3" fill="#ff5fbf" opacity="0.85"/><rect x="1013" y="137" width="65" height="6" fill="#ff5fbf" opacity="0.18"/><line x1="1046" y1="139" x2="1046" y2="119" stroke="#3a4252" stroke-width="2"/><circle class="blink" cx="1046" cy="117" r="2.6" fill="#ff4d5e" style="animation-delay:1.2s"/><rect x="1029" y="145" width="3.4" height="4.2" fill="#ff7bd5" opacity="0.9"/><rect x="1049" y="145" width="3.4" height="4.2" fill="#ffd479" opacity="0.9"/><rect x="1019" y="155" width="3.4" height="4.2" fill="#ffc04d" opacity="0.9"/><rect x="1029" y="155" width="3.4" height="4.2" fill="#ffd479" opacity="0.9"/><rect x="1039" y="155" width="3.4" height="4.2" fill="#ff7bd5" opacity="0.9"/><rect class="flk" x="1059" y="155" width="3.4" height="4.2" fill="#ffc04d" style="animation-delay:1.43s"/><rect x="1019" y="165" width="3.4" height="4.2" fill="#79e6ff" opacity="0.9"/><rect x="1019" y="185" width="3.4" height="4.2" fill="#79e6ff" opacity="0.9"/><rect x="1029" y="185" width="3.4" height="4.2" fill="#ffd479" opacity="0.9"/><rect x="1049" y="185" width="3.4" height="4.2" fill="#ffd479" opacity="0.9"/><rect x="1039" y="195" width="3.4" height="4.2" fill="#ffc04d" opacity="0.9"/><rect x="1049" y="195" width="3.4" height="4.2" fill="#ffd479" opacity="0.9"/><rect x="1029" y="205" width="3.4" height="4.2" fill="#ff7bd5" opacity="0.9"/><rect class="flk" x="1029" y="215" width="3.4" height="4.2" fill="#ffd479" style="animation-delay:3.08s"/><rect x="1039" y="215" width="3.4" height="4.2" fill="#ff7bd5" opacity="0.9"/><rect x="1059" y="215" width="3.4" height="4.2" fill="#79e6ff" opacity="0.9"/><rect x="1019" y="225" width="3.4" height="4.2" fill="#79e6ff" opacity="0.9"/><rect x="1029" y="225" width="3.4" height="4.2" fill="#ffd479" opacity="0.9"/><rect x="1039" y="225" width="3.4" height="4.2" fill="#ffd479" opacity="0.9"/><rect class="flk" x="1059" y="225" width="3.4" height="4.2" fill="#ffd479" style="animation-delay:3.74s"/><rect x="1019" y="235" width="3.4" height="4.2" fill="#ff7bd5" opacity="0.9"/><rect x="1039" y="235" width="3.4" height="4.2" fill="#ffd479" opacity="0.9"/><rect x="1019" y="245" width="3.4" height="4.2" fill="#ffd479" opacity="0.9"/><rect class="flk" x="1029" y="255" width="3.4" height="4.2" fill="#ffd479" style="animation-delay:0.00s"/><rect class="flk" x="1039" y="255" width="3.4" height="4.2" fill="#ff7bd5" style="animation-delay:0.11s"/><rect x="1049" y="255" width="3.4" height="4.2" fill="#ff7bd5" opacity="0.9"/><rect x="1029" y="265" width="3.4" height="4.2" fill="#ffc04d" opacity="0.9"/><rect x="1059" y="265" width="3.4" height="4.2" fill="#ffd479" opacity="0.9"/><rect x="1039" y="275" width="3.4" height="4.2" fill="#79e6ff" opacity="0.9"/><rect x="1059" y="275" width="3.4" height="4.2" fill="#ff7bd5" opacity="0.9"/><rect x="1019" y="285" width="3.4" height="4.2" fill="#ff7bd5" opacity="0.9"/><rect x="1049" y="285" width="3.4" height="4.2" fill="#ff7bd5" opacity="0.9"/><rect x="1059" y="285" width="3.4" height="4.2" fill="#ffd479" opacity="0.9"/><rect x="1019" y="295" width="3.4" height="4.2" fill="#79e6ff" opacity="0.9"/><rect x="1029" y="295" width="3.4" height="4.2" fill="#79e6ff" opacity="0.9"/><rect x="1080" y="133" width="48" height="189" fill="#0c0f17"/><rect x="1080" y="133" width="48" height="3" fill="#ff5fbf" opacity="0.85"/><rect x="1080" y="131" width="48" height="6" fill="#ff5fbf" opacity="0.18"/><line x1="1104" y1="133" x2="1104" y2="113" stroke="#3a4252" stroke-width="2"/><circle class="blink" cx="1104" cy="111" r="2.6" fill="#ff4d5e" style="animation-delay:1.6s"/><rect x="1096" y="149" width="3.4" height="4.2" fill="#ffd479" opacity="0.9"/><rect x="1096" y="159" width="3.4" height="4.2" fill="#ff7bd5" opacity="0.9"/><rect x="1086" y="169" width="3.4" height="4.2" fill="#ffd479" opacity="0.9"/><rect x="1106" y="169" width="3.4" height="4.2" fill="#ffd479" opacity="0.9"/><rect x="1086" y="179" width="3.4" height="4.2" fill="#79e6ff" opacity="0.9"/><rect x="1096" y="179" width="3.4" height="4.2" fill="#ffc04d" opacity="0.9"/><rect x="1106" y="179" width="3.4" height="4.2" fill="#79e6ff" opacity="0.9"/><rect x="1086" y="189" width="3.4" height="4.2" fill="#ffc04d" opacity="0.9"/><rect x="1096" y="189" width="3.4" height="4.2" fill="#ff7bd5" opacity="0.9"/><rect x="1106" y="189" width="3.4" height="4.2" fill="#ff7bd5" opacity="0.9"/><rect x="1096" y="199" width="3.4" height="4.2" fill="#ffd479" opacity="0.9"/><rect x="1106" y="199" width="3.4" height="4.2" fill="#ffc04d" opacity="0.9"/><rect x="1096" y="209" width="3.4" height="4.2" fill="#ff7bd5" opacity="0.9"/><rect x="1106" y="209" width="3.4" height="4.2" fill="#79e6ff" opacity="0.9"/><rect x="1086" y="219" width="3.4" height="4.2" fill="#79e6ff" opacity="0.9"/><rect class="flk" x="1096" y="219" width="3.4" height="4.2" fill="#ff7bd5" style="animation-delay:4.18s"/><rect class="flk" x="1106" y="219" width="3.4" height="4.2" fill="#ff7bd5" style="animation-delay:4.29s"/><rect x="1086" y="229" width="3.4" height="4.2" fill="#ff7bd5" opacity="0.9"/><rect x="1106" y="229" width="3.4" height="4.2" fill="#ffc04d" opacity="0.9"/><rect x="1096" y="249" width="3.4" height="4.2" fill="#ffd479" opacity="0.9"/><rect class="flk" x="1086" y="259" width="3.4" height="4.2" fill="#ffd479" style="animation-delay:0.99s"/><rect x="1086" y="279" width="3.4" height="4.2" fill="#ff7bd5" opacity="0.9"/><rect x="1086" y="289" width="3.4" height="4.2" fill="#ffc04d" opacity="0.9"/><rect x="1096" y="299" width="3.4" height="4.2" fill="#79e6ff" opacity="0.9"/><rect x="1106" y="299" width="3.4" height="4.2" fill="#ffd479" opacity="0.9"/><rect x="1130" y="116" width="44" height="206" fill="#0c0f17"/><rect x="1130" y="116" width="44" height="3" fill="#36e0ff" opacity="0.85"/><rect x="1130" y="114" width="44" height="6" fill="#36e0ff" opacity="0.18"/><rect x="1146" y="122" width="3.4" height="4.2" fill="#ff7bd5" opacity="0.9"/><rect x="1136" y="132" width="3.4" height="4.2" fill="#ff7bd5" opacity="0.9"/><rect x="1136" y="142" width="3.4" height="4.2" fill="#ffd479" opacity="0.9"/><rect x="1146" y="142" width="3.4" height="4.2" fill="#ffd479" opacity="0.9"/><rect x="1156" y="142" width="3.4" height="4.2" fill="#ff7bd5" opacity="0.9"/><rect class="flk" x="1156" y="152" width="3.4" height="4.2" fill="#79e6ff" style="animation-delay:3.41s"/><rect x="1146" y="162" width="3.4" height="4.2" fill="#ffd479" opacity="0.9"/><rect class="flk" x="1146" y="182" width="3.4" height="4.2" fill="#ffd479" style="animation-delay:4.29s"/><rect x="1136" y="192" width="3.4" height="4.2" fill="#ffd479" opacity="0.9"/><rect x="1136" y="202" width="3.4" height="4.2" fill="#ffd479" opacity="0.9"/><rect x="1156" y="202" width="3.4" height="4.2" fill="#ffd479" opacity="0.9"/><rect x="1146" y="212" width="3.4" height="4.2" fill="#ffd479" opacity="0.9"/><rect x="1156" y="212" width="3.4" height="4.2" fill="#79e6ff" opacity="0.9"/><rect x="1136" y="222" width="3.4" height="4.2" fill="#ffd479" opacity="0.9"/><rect class="flk" x="1146" y="222" width="3.4" height="4.2" fill="#ffd479" style="animation-delay:1.21s"/><rect x="1136" y="232" width="3.4" height="4.2" fill="#ffd479" opacity="0.9"/><rect x="1146" y="232" width="3.4" height="4.2" fill="#79e6ff" opacity="0.9"/><rect class="flk" x="1156" y="232" width="3.4" height="4.2" fill="#ff7bd5" style="animation-delay:1.65s"/><rect x="1156" y="242" width="3.4" height="4.2" fill="#79e6ff" opacity="0.9"/><rect x="1136" y="252" width="3.4" height="4.2" fill="#ffd479" opacity="0.9"/><rect x="1156" y="252" width="3.4" height="4.2" fill="#ffd479" opacity="0.9"/><rect x="1136" y="262" width="3.4" height="4.2" fill="#ffc04d" opacity="0.9"/><rect class="flk" x="1146" y="262" width="3.4" height="4.2" fill="#ffc04d" style="animation-delay:2.53s"/><rect x="1136" y="292" width="3.4" height="4.2" fill="#ffc04d" opacity="0.9"/><rect x="1156" y="292" width="3.4" height="4.2" fill="#ff7bd5" opacity="0.9"/><rect x="1156" y="302" width="3.4" height="4.2" fill="#ffd479" opacity="0.9"/><rect x="1176" y="116" width="35" height="206" fill="#0c0f17"/><rect x="1176" y="116" width="35" height="3" fill="#ff5fbf" opacity="0.85"/><rect x="1176" y="114" width="35" height="6" fill="#ff5fbf" opacity="0.18"/><rect x="1182" y="122" width="3.4" height="4.2" fill="#ffd479" opacity="0.9"/><rect x="1182" y="142" width="3.4" height="4.2" fill="#ffd479" opacity="0.9"/><rect x="1192" y="162" width="3.4" height="4.2" fill="#ffc04d" opacity="0.9"/><rect class="flk" x="1182" y="182" width="3.4" height="4.2" fill="#79e6ff" style="animation-delay:0.55s"/><rect x="1182" y="192" width="3.4" height="4.2" fill="#ff7bd5" opacity="0.9"/><rect x="1192" y="192" width="3.4" height="4.2" fill="#ffd479" opacity="0.9"/><rect x="1182" y="212" width="3.4" height="4.2" fill="#79e6ff" opacity="0.9"/><rect x="1192" y="212" width="3.4" height="4.2" fill="#ffc04d" opacity="0.9"/><rect x="1182" y="232" width="3.4" height="4.2" fill="#79e6ff" opacity="0.9"/><rect x="1182" y="242" width="3.4" height="4.2" fill="#ffd479" opacity="0.9"/><rect x="1192" y="262" width="3.4" height="4.2" fill="#ffd479" opacity="0.9"/><rect x="1182" y="272" width="3.4" height="4.2" fill="#ffd479" opacity="0.9"/><rect x="1192" y="282" width="3.4" height="4.2" fill="#ffd479" opacity="0.9"/><rect class="flk" x="1192" y="302" width="3.4" height="4.2" fill="#79e6ff" style="animation-delay:0.22s"/><rect x="1213" y="106" width="36" height="216" fill="#0c0f17"/><rect x="1213" y="106" width="36" height="3" fill="#36e0ff" opacity="0.85"/><rect x="1213" y="104" width="36" height="6" fill="#36e0ff" opacity="0.18"/><line x1="1231" y1="106" x2="1231" y2="86" stroke="#3a4252" stroke-width="2"/><circle class="blink" cx="1231" cy="84" r="2.6" fill="#ff4d5e" style="animation-delay:0.8s"/><rect x="1229" y="122" width="3.4" height="4.2" fill="#ffd479" opacity="0.9"/><rect x="1219" y="132" width="3.4" height="4.2" fill="#ff7bd5" opacity="0.9"/><rect x="1229" y="132" width="3.4" height="4.2" fill="#ff7bd5" opacity="0.9"/><rect x="1219" y="142" width="3.4" height="4.2" fill="#ffd479" opacity="0.9"/><rect x="1229" y="142" width="3.4" height="4.2" fill="#79e6ff" opacity="0.9"/><rect x="1229" y="152" width="3.4" height="4.2" fill="#ffd479" opacity="0.9"/><rect x="1219" y="162" width="3.4" height="4.2" fill="#ffd479" opacity="0.9"/><rect x="1229" y="182" width="3.4" height="4.2" fill="#79e6ff" opacity="0.9"/><rect class="flk" x="1219" y="192" width="3.4" height="4.2" fill="#ff7bd5" style="animation-delay:1.98s"/><rect x="1219" y="202" width="3.4" height="4.2" fill="#79e6ff" opacity="0.9"/><rect x="1229" y="202" width="3.4" height="4.2" fill="#ffd479" opacity="0.9"/><rect x="1219" y="212" width="3.4" height="4.2" fill="#79e6ff" opacity="0.9"/><rect x="1219" y="222" width="3.4" height="4.2" fill="#79e6ff" opacity="0.9"/><rect x="1229" y="252" width="3.4" height="4.2" fill="#ff7bd5" opacity="0.9"/><rect x="1229" y="262" width="3.4" height="4.2" fill="#ff7bd5" opacity="0.9"/><rect x="1219" y="272" width="3.4" height="4.2" fill="#ffd479" opacity="0.9"/><rect x="1219" y="292" width="3.4" height="4.2" fill="#ffc04d" opacity="0.9"/><rect x="1229" y="292" width="3.4" height="4.2" fill="#ffd479" opacity="0.9"/></g>
<rect x="0" y="0" width="150" height="320" fill="url(#fadeL)"/>
<rect x="1050" y="0" width="150" height="320" fill="url(#fadeR)"/>
<rect x="0" y="0" width="1200" height="70" fill="url(#fadeT)"/>
<rect x="0" y="270" width="1200" height="50" fill="url(#fadeB)"/>
<text x="30" y="44" fill="#e6edf3" font-size="24" font-weight="600" letter-spacing="1.2" style="paint-order:stroke" stroke="#0d1117" stroke-width="3" stroke-linejoin="round"><tspan fill="#ff5fbf">&gt;</tspan> cheyuriy's github</text>
</svg>