<svg xmlns="http://www.w3.org/2000/svg" viewBox="0 0 797 154" width="797" height="154" font-family="'Segoe UI',Verdana,sans-serif">
<rect x="19.8" y="12" width="192.2" height="56" rx="14" fill="#161b22" stroke="#4C8DFF" stroke-width="1.8"/>
<g transform="translate(37.8,26.0) scale(1.167)"><rect x="1.5" y="3" width="21" height="18" rx="3.2" fill="none" stroke="#4C8DFF" stroke-width="2"/><polyline points="6,9 9.6,12.5 6,16" fill="none" stroke="#4C8DFF" stroke-width="2" stroke-linecap="round" stroke-linejoin="round"/><line x1="12.5" y1="16" x2="17" y2="16" stroke="#4C8DFF" stroke-width="2" stroke-linecap="round"/></g>
<text x="77.8" y="46.5" fill="#e6edf3" font-size="19" font-weight="600">Programming</text>
<rect x="232.0" y="12" width="120.8" height="56" rx="14" fill="#161b22" stroke="#F2545B" stroke-width="1.8"/>
<g transform="translate(250.0,26.0) scale(1.167)"><g fill="none" stroke="#F2545B" stroke-width="2" stroke-linecap="round"><ellipse cx="12" cy="5" rx="8" ry="3"/><path d="M4 5 V19 a8 3 0 0 0 16 0 V5"/><path d="M4 12 a8 3 0 0 0 16 0"/></g></g>
<text x="290.0" y="46.5" fill="#e6edf3" font-size="19" font-weight="600">Data</text>
<rect x="372.8" y="12" width="192.2" height="56" rx="14" fill="#161b22" stroke="#3FB950" stroke-width="1.8"/>
<g transform="translate(390.8,26.0) scale(1.167)"><g fill="none" stroke="#3FB950" stroke-width="2"><circle cx="12" cy="12" r="9.3"/><ellipse cx="12" cy="12" rx="3.8" ry="9.3"/><line x1="2.7" y1="12" x2="21.3" y2="12"/><path d="M4.4 7 H19.6 M4.4 17 H19.6"/></g></g>
<text x="430.8" y="46.5" fill="#e6edf3" font-size="19" font-weight="600">IT Products</text>
<rect x="585.0" y="12" width="192.2" height="56" rx="14" fill="#161b22" stroke="#C9D1D9" stroke-width="1.8"/>
<g transform="translate(603.0,26.0) scale(1.167)"><path fill="#C9D1D9" d="M12 .297c-6.63 0-12 5.373-12 12 0 5.303 3.438 9.8 8.205 11.385.6.113.82-.258.82-.577 0-.285-.01-1.04-.015-2.04-3.338.724-4.042-1.61-4.042-1.61C4.422 18.07 3.633 17.7 3.633 17.7c-1.087-.744.084-.729.084-.729 1.205.084 1.838 1.236 1.838 1.236 1.07 1.835 2.809 1.305 3.495.998.108-.776.417-1.305.76-1.605-2.665-.305-5.467-1.334-5.467-5.931 0-1.311.469-2.381 1.236-3.221-.124-.303-.535-1.524.117-3.176 0 0 1.008-.322 3.301 1.23A11.509 11.509 0 0 1 12 5.803c1.02.005 2.047.138 3.006.404 2.291-1.552 3.297-1.23 3.297-1.23.653 1.653.242 2.874.118 3.176.77.84 1.235 1.911 1.235 3.221 0 4.609-2.807 5.624-5.479 5.921.43.372.823 1.102.823 2.222 0 1.606-.014 2.898-.014 3.293 0 .322.216.694.825.576C20.565 22.092 24 17.592 24 12.297c0-6.627-5.373-12-12-12"/></g>
<text x="643.0" y="46.5" fill="#e6edf3" font-size="19" font-weight="600">Open Source</text>
<rect x="35.1" y="86" width="202.4" height="56" rx="14" fill="#161b22" stroke="#B36BFF" stroke-width="1.8"/>
<g transform="translate(53.1,100.0) scale(1.167)"><g stroke="#B36BFF" stroke-width="1.2" stroke-opacity="0.55"><line x1="5" y1="7" x2="12" y2="5"/><line x1="5" y1="7" x2="12" y2="12"/><line x1="5" y1="7" x2="12" y2="19"/><line x1="5" y1="17" x2="12" y2="5"/><line x1="5" y1="17" x2="12" y2="12"/><line x1="5" y1="17" x2="12" y2="19"/><line x1="12" y1="5" x2="19" y2="8"/><line x1="12" y1="5" x2="19" y2="16"/><line x1="12" y1="12" x2="19" y2="8"/><line x1="12" y1="12" x2="19" y2="16"/><line x1="12" y1="19" x2="19" y2="8"/><line x1="12" y1="19" x2="19" y2="16"/></g><g fill="#B36BFF"><circle cx="5" cy="7" r="1.9"/><circle cx="5" cy="17" r="1.9"/><circle cx="12" cy="5" r="1.9"/><circle cx="12" cy="12" r="1.9"/><circle cx="12" cy="19" r="1.9"/><circle cx="19" cy="8" r="1.9"/><circle cx="19" cy="16" r="1.9"/></g></g>
<text x="93.1" y="120.5" fill="#e6edf3" font-size="19" font-weight="600">Pragmatic AI</text>
<rect x="257.5" y="86" width="202.4" height="56" rx="14" fill="#161b22" stroke="#F5A623" stroke-width="1.8"/>
<g transform="translate(275.5,100.0) scale(1.167)"><path fill="#F5A623" d="M20.60,12.00 L23.15,13.05 L22.70,15.29 L19.95,15.29 L18.08,18.08 L19.14,20.63 L17.24,21.90 L15.29,19.95 L12.00,20.60 L10.95,23.15 L8.71,22.70 L8.71,19.95 L5.92,18.08 L3.37,19.14 L2.10,17.24 L4.05,15.29 L3.40,12.00 L0.85,10.95 L1.30,8.71 L4.05,8.71 L5.92,5.92 L4.86,3.37 L6.76,2.10 L8.71,4.05 L12.00,3.40 L13.05,0.85 L15.29,1.30 L15.29,4.05 L18.08,5.92 L20.63,4.86 L21.90,6.76 L19.95,8.71 Z"/><circle cx="12" cy="12" r="3.4" fill="#161b22"/></g>
<text x="315.5" y="120.5" fill="#e6edf3" font-size="19" font-weight="600">Technologies</text>
<rect x="479.9" y="86" width="131.0" height="56" rx="14" fill="#161b22" stroke="#E255C9" stroke-width="1.8"/>
<g transform="translate(497.9,100.0) scale(1.167)"><g fill="#E255C9"><circle cx="8.5" cy="16.2" r="6.1"/><circle cx="11" cy="9.8" r="4.4"/></g><circle cx="8.5" cy="15.6" r="2.2" fill="#161b22"/><line x1="13.2" y1="7.6" x2="19.8" y2="2.6" stroke="#E255C9" stroke-width="2.4" stroke-linecap="round"/><line x1="18.6" y1="1.4" x2="21.2" y2="3.4" stroke="#E255C9" stroke-width="2.4" stroke-linecap="round"/></g>
<text x="537.9" y="120.5" fill="#e6edf3" font-size="19" font-weight="600">Music</text>
<rect x="630.9" y="86" width="131.0" height="56" rx="14" fill="#161b22" stroke="#66C0F4" stroke-width="1.8"/>
<g transform="translate(648.9,100.0) scale(1.167)"><path fill="#66C0F4" fill-rule="evenodd" d="M11.979 0C5.678 0 .511 4.86.022 11.037l6.432 2.658c.545-.371 1.203-.59 1.912-.59.063 0 .125.004.188.006l2.861-4.142V8.91c0-2.495 2.028-4.524 4.524-4.524 2.494 0 4.524 2.031 4.524 4.527s-2.03 4.525-4.524 4.525h-.105l-4.076 2.911c0 .052.004.105.004.159 0 1.875-1.515 3.396-3.39 3.396-1.635 0-3.016-1.173-3.331-2.727L.436 15.27C1.862 20.307 6.486 24 11.979 24c6.627 0 11.999-5.373 11.999-12S18.605 0 11.979 0zM7.54 18.21l-1.473-.61c.262.543.714.999 1.314 1.25 1.297.539 2.793-.076 3.332-1.375.263-.63.264-1.319.005-1.949s-.75-1.121-1.377-1.383c-.624-.26-1.29-.249-1.878-.03l1.523.63c.956.4 1.409 1.5 1.009 2.455-.397.957-1.497 1.41-2.454 1.011H7.54zm11.415-9.303c0-1.662-1.353-3.015-3.015-3.015-1.665 0-3.015 1.353-3.015 3.015 0 1.665 1.35 3.015 3.015 3.015 1.663 0 3.015-1.35 3.015-3.015zm-5.273-.005c0-1.252 1.013-2.266 2.265-2.266 1.249 0 2.266 1.014 2.266 2.266 0 1.251-1.017 2.265-2.266 2.265-1.253 0-2.265-1.014-2.265-2.265z"/></g>
<text x="688.9" y="120.5" fill="#e6edf3" font-size="19" font-weight="600">Games</text>
</svg>